<?xml version="1.0" standalone="no"?>
<!DOCTYPE svg PUBLIC "-//W3C//DTD SVG 20010904//EN"
 "http://www.w3.org/TR/2001/REC-SVG-20010904/DTD/svg10.dtd">
<svg version="1.0" xmlns="http://www.w3.org/2000/svg"
 width="840.000000pt" height="474.000000pt" viewBox="0 0 840.000000 474.000000"
 preserveAspectRatio="xMidYMid meet">

<g transform="translate(0.000000,474.000000) scale(0.100000,-0.100000)"
fill="#000000" stroke="none">
<path d="M260 3991 c0 -8 -6 -11 -15 -7 -11 4 -15 -2 -16 -22 l-1 -27 -8 25
c-14 47 -17 -126 -18 -1192 l-2 -1058 1494 0 1493 0 1127 1131 c619 621 1124
1134 1121 1139 -7 11 -37 1 -47 -14 -6 -8 -8 -8 -8 0 0 7 -29 12 -77 13 -43 1
-111 3 -150 5 -40 2 -73 0 -73 -4 0 -5 -21 -6 -46 -3 -33 4 -49 2 -55 -8 -7
-11 -11 -11 -17 -2 -6 9 -91 13 -334 15 l-327 3 -4 -22 c-2 -13 -1 -23 3 -23
23 0 125 -122 155 -185 48 -103 60 -163 59 -310 0 -150 -20 -231 -79 -330 -48
-80 -86 -118 -171 -175 -127 -83 -285 -120 -518 -120 l-136 0 -2 -277 -3 -278
-430 0 -430 0 -44 133 c-36 106 -48 131 -60 127 -103 -40 -359 -50 -491 -20
-41 9 -81 18 -89 18 -8 1 -27 -40 -53 -123 -23 -69 -46 -128 -52 -132 -15 -11
-514 -10 -520 0 -3 5 4 32 14 61 27 70 25 76 -12 47 -239 -180 -692 -188
-1061 -17 -111 51 -110 32 -12 229 47 94 90 174 94 176 4 3 38 -11 74 -30 133
-70 197 -87 353 -92 126 -4 146 -2 187 16 88 39 115 132 55 189 -45 42 -58 48
-255 114 -327 110 -467 201 -546 354 -38 73 -50 144 -44 259 7 140 47 232 148
338 21 23 39 45 39 49 0 4 6 10 13 12 9 4 9 6 -1 6 -7 1 -10 6 -6 13 4 7 3 8
-4 4 -7 -4 -12 -15 -12 -26 0 -10 -7 -21 -16 -24 -8 -3 -12 -2 -9 4 3 6 1 10
-5 10 -6 0 -8 5 -4 12 5 8 2 9 -9 5 -9 -3 -19 -2 -22 3 -4 7 -13 6 -25 0 -13
-7 -20 -6 -23 3 -3 7 -6 5 -6 -5 -1 -19 -21 -26 -21 -8 0 6 -8 10 -18 10 -10
0 -23 5 -30 12 -9 9 -12 9 -12 -1z"/>
<path d="M1755 3973 c2 -7 0 -13 -4 -13 -5 0 -11 6 -14 13 -3 9 -9 9 -28 -2
-16 -10 -24 -10 -27 -2 -6 19 -20 12 -15 -8 3 -12 -32 -82 -97 -192 -56 -96
-104 -176 -105 -178 -2 -1 -50 15 -107 37 -129 51 -232 72 -346 72 -140 0
-232 -45 -232 -113 0 -66 101 -126 355 -212 320 -109 480 -225 526 -380 7 -25
16 -45 19 -45 3 0 19 39 37 88 17 48 66 179 108 292 230 618 232 625 208 616
-13 -5 -14 -4 -3 9 7 8 17 12 23 8 6 -3 7 -1 3 5 -5 9 -13 9 -26 2 -23 -12
-33 -13 -26 -2 3 5 -25 10 -62 11 -37 1 -95 2 -130 4 -47 2 -61 -1 -57 -10z
m90 -23 c3 -6 -1 -7 -9 -4 -18 7 -21 14 -7 14 6 0 13 -4 16 -10z m40 0 c3 -5
2 -10 -4 -10 -5 0 -13 5 -16 10 -3 6 -2 10 4 10 5 0 13 -4 16 -10z"/>
<path d="M2700 3983 c-8 -3 -20 -6 -27 -8 -12 -4 -2 -38 73 -250 44 -124 99
-274 124 -340 10 -27 65 -176 121 -330 56 -154 105 -289 110 -300 4 -11 7 255
6 590 -2 521 -4 610 -16 607 -11 -2 -12 0 -3 10 9 11 7 14 -9 15 -14 1 -19 -3
-15 -12 3 -9 0 -12 -10 -8 -7 3 -14 9 -14 14 0 15 -217 11 -224 -3 -5 -10 -7
-10 -12 0 -7 14 -64 17 -64 2 0 -15 -18 -12 -22 3 -2 8 -10 12 -18 10z m-10
-23 c0 -5 -2 -10 -4 -10 -3 0 -8 5 -11 10 -3 6 -1 10 4 10 6 0 11 -4 11 -10z"/>
<path d="M4260 3970 c0 -5 7 -10 16 -10 8 0 12 5 9 10 -3 6 -10 10 -16 10 -5
0 -9 -4 -9 -10z"/>
<path d="M3610 3455 l0 -225 98 0 c223 0 322 69 322 225 0 156 -99 225 -322
225 l-98 0 0 -225z"/>
<path d="M2332 3408 c-11 -34 -50 -155 -86 -268 -36 -113 -66 -208 -66 -212 0
-13 100 -29 181 -29 85 0 169 14 169 30 0 4 -20 70 -44 147 -25 76 -61 193
-82 259 -20 66 -40 124 -44 128 -4 5 -17 -20 -28 -55z"/>
</g>
</svg>
