<?xml version="1.0" standalone="no"?>
<!DOCTYPE svg PUBLIC "-//W3C//DTD SVG 20010904//EN"
 "http://www.w3.org/TR/2001/REC-SVG-20010904/DTD/svg10.dtd">
<svg version="1.0" xmlns="http://www.w3.org/2000/svg"
 width="2481.000000pt" height="2354.000000pt" viewBox="0 0 2481.000000 2354.000000"
 preserveAspectRatio="xMidYMid meet">

<g transform="translate(0.000000,2354.000000) scale(0.100000,-0.100000)"
fill="#000000" stroke="none">
<path d="M10795 22605 c-175 -38 -345 -138 -642 -377 -396 -319 -525 -399
-729 -450 -134 -34 -399 -31 -719 7 -612 73 -846 25 -1099 -228 -103 -103
-160 -174 -321 -407 -217 -313 -300 -416 -412 -511 -166 -141 -335 -208 -698
-275 -379 -70 -498 -95 -599 -128 -252 -83 -399 -197 -521 -406 -65 -111 -106
-213 -216 -540 -102 -302 -190 -504 -263 -605 -61 -85 -167 -184 -272 -254
-55 -38 -235 -136 -400 -219 -364 -184 -487 -262 -609 -386 -189 -191 -245
-377 -265 -886 -16 -426 -31 -557 -77 -705 -73 -230 -155 -333 -640 -792 -252
-240 -346 -363 -406 -528 -74 -206 -62 -396 49 -835 87 -344 114 -482 121
-619 13 -262 -46 -427 -314 -875 -232 -388 -302 -560 -310 -767 -11 -242 47
-401 302 -829 260 -438 319 -592 318 -835 0 -154 -18 -255 -108 -610 -129
-510 -141 -666 -69 -885 58 -173 186 -337 479 -610 325 -304 418 -408 500
-563 88 -165 120 -336 135 -718 13 -335 18 -415 37 -534 47 -309 164 -487 437
-667 48 -32 203 -116 345 -187 306 -155 411 -215 511 -289 102 -76 173 -150
238 -251 77 -117 130 -242 237 -561 51 -151 107 -310 124 -353 134 -336 308
-508 611 -606 122 -39 172 -50 475 -106 413 -76 571 -125 730 -230 144 -94
259 -225 465 -525 187 -273 247 -350 364 -465 146 -144 248 -204 419 -243 114
-26 408 -21 692 11 310 35 430 41 556 28 258 -27 428 -112 757 -380 286 -232
421 -329 547 -391 201 -100 359 -122 565 -80 138 28 242 64 534 184 398 164
550 206 738 206 176 0 343 -47 703 -197 427 -178 550 -213 746 -213 262 0 423
80 863 434 334 268 473 352 663 403 144 39 387 38 713 -2 287 -35 577 -40 697
-13 159 37 267 96 395 217 114 107 184 196 360 450 324 469 452 585 753 684
112 37 215 60 480 107 485 86 657 149 818 300 148 138 229 297 376 730 155
460 215 583 361 730 118 120 249 202 593 375 390 196 530 288 643 424 99 120
160 268 188 462 18 124 23 205 36 529 15 366 46 533 129 699 79 156 191 283
511 578 401 369 506 539 517 838 7 170 -9 270 -102 645 -107 427 -126 561
-106 730 23 186 92 346 305 702 221 370 293 535 316 723 30 240 -39 443 -298
877 -202 337 -274 492 -308 658 -13 67 -16 114 -11 230 7 162 26 265 106 566
88 331 104 428 105 604 1 177 -10 235 -73 365 -61 128 -148 236 -339 420 -367
354 -486 478 -545 566 -142 215 -178 377 -197 885 -11 312 -21 421 -50 556
-52 240 -167 405 -391 558 -52 36 -233 136 -404 223 -514 263 -646 368 -780
628 -55 106 -120 272 -170 434 -217 700 -379 890 -859 1015 -61 16 -214 48
-341 70 -537 96 -692 158 -893 354 -98 95 -182 203 -355 456 -152 222 -212
299 -315 404 -169 172 -306 239 -545 267 -124 14 -272 7 -577 -28 -168 -19
-274 -26 -420 -26 -179 0 -203 2 -294 26 -195 52 -324 131 -676 414 -269 215
-368 285 -501 347 -141 67 -202 80 -354 80 -197 0 -329 -37 -715 -199 -405
-171 -554 -210 -770 -202 -200 7 -312 40 -725 214 -234 99 -397 155 -514 177
-99 19 -263 20 -346 1z m3555 -3525 l0 -150 -1950 0 -1950 0 0 150 0 150 1950
0 1950 0 0 -150z m2890 -1040 c1247 -130 2196 -1115 2269 -2356 36 -604 -141
-1187 -512 -1683 -39 -53 -139 -164 -222 -246 -217 -217 -391 -343 -662 -477
l-143 -71 0 -1318 0 -1319 -280 0 -280 0 0 1069 0 1069 -177 -74 c-98 -41
-184 -74 -190 -74 -10 0 -13 48 -13 205 l0 205 47 23 46 24 -209 6 c-132 4
-247 13 -311 25 -57 10 -103 17 -103 15 0 -1 14 -23 32 -49 38 -57 80 -164
104 -264 15 -67 18 -152 21 -765 5 -728 0 -847 -38 -972 -58 -189 -176 -336
-329 -411 -117 -57 -184 -73 -335 -79 -161 -6 -284 16 -402 72 -110 53 -224
168 -282 286 -87 178 -91 226 -91 1029 0 803 4 854 91 1035 96 201 269 324
494 353 l60 7 -70 39 c-384 215 -719 548 -942 938 l-50 88 -28 -78 c-42 -119
-91 -200 -169 -277 -107 -106 -224 -160 -416 -191 -133 -22 -401 -14 -520 16
-215 53 -366 171 -454 351 -48 100 -79 210 -96 349 -6 51 -10 348 -10 745 0
397 4 694 10 745 18 141 48 250 97 350 62 126 161 227 276 283 270 131 720
126 980 -11 66 -34 163 -117 202 -172 9 -14 19 -20 21 -15 32 80 126 267 181
361 357 601 955 1028 1643 1172 81 17 160 29 305 46 69 7 367 5 455 -4z
m-8260 -1081 c101 -22 196 -111 226 -215 15 -51 10 -177 -91 -2357 -68 -1478
-111 -2330 -120 -2380 -49 -273 -155 -498 -337 -713 -202 -241 -503 -419 -828
-490 -73 -16 -130 -19 -400 -19 -270 0 -327 3 -400 19 -597 130 -1042 579
-1160 1172 -17 84 -36 436 -126 2369 -58 1249 -103 2299 -101 2335 8 131 92
235 222 276 54 17 3036 20 3115 3z m3370 -225 c36 -9 102 -33 146 -55 146 -69
255 -214 309 -414 23 -83 54 -310 43 -320 -2 -2 -110 -18 -238 -35 -129 -16
-251 -33 -272 -36 l-36 -5 -6 88 c-18 249 -61 333 -169 333 -113 0 -180 -86
-179 -232 1 -189 50 -260 386 -557 299 -264 397 -377 481 -556 53 -113 73
-185 85 -315 30 -311 -94 -576 -335 -718 -138 -80 -267 -107 -475 -99 -443 18
-677 234 -744 689 -22 145 -21 215 2 222 37 10 513 78 518 74 2 -3 9 -56 14
-118 21 -233 69 -335 176 -376 81 -31 156 -5 199 67 16 28 20 52 20 129 0 150
-52 279 -162 401 -21 23 -135 126 -253 229 -118 103 -248 222 -288 264 -186
196 -252 381 -239 665 10 220 61 345 192 477 119 120 270 190 464 214 93 12
284 4 361 -16z m-1280 -1449 l0 -1435 -320 0 -320 0 0 1428 c0 786 3 1432 7
1435 3 4 147 7 320 7 l313 0 0 -1435z m333 -2004 c243 -64 400 -225 458 -467
39 -163 27 -373 -28 -529 -51 -142 -123 -261 -454 -757 -187 -279 -339 -509
-339 -513 0 -3 173 -5 385 -5 l385 0 0 -220 0 -220 -705 0 -705 0 0 199 0 199
367 569 c419 649 485 757 514 832 55 148 63 286 20 374 -29 60 -72 87 -140 87
-67 0 -110 -19 -148 -65 -46 -55 -64 -130 -70 -292 l-6 -143 -268 0 -269 0 0
139 c0 471 195 755 566 826 111 21 333 14 437 -14z m1977 -202 l0 -192 -292
-1158 -291 -1159 -274 0 c-150 0 -273 1 -273 3 0 4 570 2229 576 2250 5 16
-17 17 -360 17 l-366 0 0 215 0 215 640 0 640 0 0 -191z m1570 0 l0 -192 -292
-1158 -291 -1159 -274 0 c-150 0 -273 1 -273 3 0 4 570 2229 576 2250 5 16
-17 17 -360 17 l-366 0 0 215 0 215 640 0 640 0 0 -191z m-6843 -2920 c411
-46 744 -348 827 -751 13 -65 16 -161 16 -593 l0 -515 -1525 0 -1525 0 0 448
c0 246 5 495 10 555 23 236 125 447 294 605 85 79 138 115 249 167 103 49 182
71 289 84 110 13 1251 13 1365 0z m2814 -414 c25 -14 28 -19 18 -36 -9 -17
-16 -19 -42 -12 -83 21 -147 -4 -147 -58 0 -47 10 -59 90 -99 43 -22 87 -51
98 -64 52 -67 27 -171 -50 -206 -48 -22 -113 -25 -170 -10 -44 13 -49 19 -41
49 4 18 10 21 27 16 81 -25 106 -27 143 -8 46 22 62 58 44 102 -10 23 -31 39
-86 66 -40 20 -83 47 -95 60 -31 33 -38 99 -15 141 34 64 155 95 226 59z
m2052 -21 c24 -17 51 -50 66 -79 22 -42 26 -62 26 -140 0 -73 -4 -98 -22 -130
-100 -186 -350 -160 -409 42 -30 103 1 232 70 290 52 44 85 54 159 50 56 -4
77 -10 110 -33z m468 21 c25 -14 28 -19 18 -36 -9 -17 -16 -19 -42 -12 -83 21
-147 -4 -147 -58 0 -47 10 -59 90 -99 43 -22 87 -51 98 -64 52 -67 27 -171
-50 -206 -48 -22 -113 -25 -170 -10 -44 13 -49 19 -41 49 4 18 10 21 27 16 81
-25 106 -27 143 -8 46 22 62 58 44 102 -10 23 -31 39 -86 66 -40 20 -83 47
-95 60 -31 33 -38 99 -15 141 34 64 155 95 226 59z m-2901 -20 l0 -25 -100 0
-100 0 0 -80 0 -80 95 0 c95 0 95 0 95 -25 0 -25 0 -25 -95 -25 l-95 0 0 -90
0 -90 105 0 105 0 0 -25 0 -25 -140 0 -140 0 0 245 0 245 135 0 135 0 0 -25z
m880 0 c0 -24 -2 -25 -75 -25 l-75 0 0 -220 0 -220 -35 0 -35 0 0 220 0 220
-70 0 c-68 0 -70 1 -70 25 l0 25 180 0 180 0 0 -25z m364 -208 c43 -127 81
-238 84 -244 3 -9 -7 -13 -31 -13 -34 0 -35 1 -62 75 l-28 76 -85 -3 -85 -3
-25 -72 c-23 -72 -24 -73 -59 -73 -24 0 -34 4 -31 13 3 6 41 117 84 244 l79
233 40 0 40 0 79 -233z m380 71 c30 -90 58 -175 62 -190 7 -31 24 -38 24 -10
1 9 29 94 63 187 l62 170 43 3 c23 2 42 0 42 -5 0 -4 7 -105 15 -223 19 -284
21 -260 -15 -260 -36 0 -37 5 -47 240 l-8 175 -27 -80 c-14 -44 -47 -137 -73
-207 -42 -113 -50 -128 -70 -128 -27 0 -23 -10 -100 224 l-62 189 -7 -169 c-4
-93 -9 -186 -13 -206 -5 -34 -9 -38 -36 -38 l-30 0 6 73 c4 39 12 150 18 245
l12 172 42 0 43 0 56 -162z m4179 -904 c24 -17 51 -50 66 -79 22 -42 26 -62
26 -140 0 -73 -4 -98 -22 -130 -100 -186 -350 -160 -409 42 -30 103 1 232 70
290 52 44 85 54 159 50 56 -4 77 -10 110 -33z m-6003 -219 l0 -245 -35 0 -35
0 0 245 0 245 35 0 35 0 0 -245z m334 83 c30 -90 58 -175 62 -190 7 -31 24
-38 24 -10 1 9 29 94 63 187 l62 170 43 3 c23 2 42 0 42 -5 0 -4 7 -105 15
-223 19 -284 21 -260 -15 -260 -36 0 -37 5 -47 240 l-8 175 -27 -80 c-14 -44
-47 -137 -73 -207 -42 -113 -50 -128 -70 -128 -27 0 -23 -10 -100 224 l-62
189 -7 -169 c-4 -93 -9 -186 -13 -206 -5 -34 -9 -38 -36 -38 l-30 0 6 73 c4
39 12 150 18 245 l12 172 42 0 43 0 56 -162z m696 146 c57 -23 84 -65 84 -130
-2 -94 -72 -153 -181 -154 l-53 0 0 -95 0 -95 -35 0 -35 0 0 239 c0 274 -11
248 107 250 46 1 87 -5 113 -15z m300 -204 l0 -220 105 0 105 0 0 -25 0 -25
-140 0 -140 0 0 245 0 245 35 0 35 0 0 -220z m610 195 l0 -25 -100 0 -100 0 0
-80 0 -80 95 0 c95 0 95 0 95 -25 0 -25 0 -25 -95 -25 l-95 0 0 -90 0 -90 105
0 105 0 0 -25 0 -25 -140 0 -140 0 0 245 0 245 135 0 135 0 0 -25z m314 -137
c30 -90 58 -175 62 -190 7 -31 24 -38 24 -10 1 9 29 94 63 187 l62 170 43 3
c23 2 42 0 42 -5 0 -4 7 -105 15 -223 19 -284 21 -260 -15 -260 -36 0 -37 5
-47 240 l-8 175 -27 -80 c-14 -44 -47 -137 -73 -207 -42 -113 -50 -128 -70
-128 -27 0 -23 -10 -100 224 l-62 189 -7 -169 c-4 -93 -9 -186 -13 -206 -5
-34 -9 -38 -36 -38 l-30 0 6 73 c4 39 12 150 18 245 l12 172 42 0 43 0 56
-162z m756 137 l0 -25 -100 0 -100 0 0 -80 0 -80 95 0 c95 0 95 0 95 -25 0
-25 0 -25 -95 -25 l-95 0 0 -90 0 -90 105 0 105 0 0 -25 0 -25 -140 0 -140 0
0 245 0 245 135 0 135 0 0 -25z m297 -95 c41 -63 94 -149 119 -190 l44 -75 0
193 0 192 30 0 30 0 0 -245 0 -245 -32 0 c-38 0 -27 -13 -180 234 l-98 159 0
-196 0 -197 -30 0 -30 0 0 246 0 245 37 -3 c35 -3 40 -8 110 -118z m703 95 c0
-24 -2 -25 -75 -25 l-75 0 0 -220 0 -220 -35 0 -35 0 0 220 0 220 -70 0 c-68
0 -70 1 -70 25 l0 25 180 0 180 0 0 -25z m374 -208 c43 -127 81 -238 84 -244
3 -9 -7 -13 -31 -13 -34 0 -35 1 -62 75 l-28 76 -85 -3 -85 -3 -25 -72 c-23
-72 -24 -73 -59 -73 -24 0 -34 4 -31 13 3 6 41 117 84 244 l79 233 40 0 40 0
79 -233z m353 113 c41 -63 94 -149 119 -190 l44 -75 0 193 0 192 30 0 30 0 0
-245 0 -245 -32 0 c-38 0 -27 -13 -180 234 l-98 159 0 -196 0 -197 -30 0 -30
0 0 246 0 245 37 -3 c35 -3 40 -8 110 -118z m699 89 c34 -18 58 -39 79 -74 27
-44 30 -56 30 -129 -1 -63 -6 -90 -22 -122 -51 -96 -140 -137 -289 -132 l-89
3 -3 237 -2 237 22 4 c13 3 68 4 124 3 86 -1 107 -5 150 -27z m-7077 -2472
c17 -21 -24 -858 -45 -916 -36 -97 -115 -151 -230 -159 -96 -6 -163 16 -220
74 -66 65 -70 92 -89 534 -8 212 -17 400 -20 417 -8 62 -5 63 309 63 223 0
286 -3 295 -13z m5350 -321 c8 -9 10 -178 9 -612 l-3 -599 -99 -3 c-64 -2
-103 1 -112 9 -19 16 -21 1188 -2 1207 18 18 192 16 207 -2z m-3839 -32 c16
-41 12 -146 -6 -172 -15 -21 -21 -22 -184 -22 l-170 0 -2 -492 -3 -493 -110
-3 c-95 -2 -111 0 -122 15 -10 13 -13 126 -13 495 l0 478 -164 0 c-201 0 -196
-3 -196 114 0 50 5 87 12 94 9 9 129 12 480 12 l468 0 10 -26z m484 -275 c85
-15 141 -43 200 -99 84 -80 135 -215 136 -362 0 -69 3 -68 -327 -68 l-296 0 5
-44 c7 -60 43 -131 81 -158 46 -33 133 -37 191 -8 25 12 55 35 67 51 l21 30
111 -3 112 -3 3 -30 c4 -43 -45 -107 -120 -156 -92 -59 -152 -74 -288 -73
-145 1 -204 21 -290 100 -96 90 -130 183 -130 359 1 124 10 174 45 250 81 170
267 254 479 214z m1133 -25 c36 -18 70 -45 88 -70 l31 -40 42 44 c23 24 68 55
100 70 48 22 70 27 142 26 94 0 137 -14 201 -65 47 -37 86 -100 105 -171 18
-71 20 -648 2 -666 -17 -17 -192 -16 -206 1 -7 8 -12 118 -14 307 -3 275 -4
297 -23 330 -22 38 -93 80 -135 80 -49 0 -113 -42 -137 -90 -22 -43 -23 -54
-23 -323 0 -173 -4 -286 -10 -298 -10 -17 -22 -19 -110 -19 -88 0 -100 2 -110
19 -6 12 -10 126 -10 301 0 311 -3 328 -62 373 -74 57 -181 38 -230 -41 -22
-36 -23 -45 -26 -334 -2 -233 -6 -299 -17 -308 -8 -7 -50 -10 -111 -8 l-99 3
-3 439 c-2 345 0 441 10 448 21 13 182 10 196 -4 7 -7 12 -28 12 -47 l0 -35
33 31 c92 88 244 107 364 47z m1593 7 c99 -37 174 -134 205 -263 17 -72 20
-260 5 -338 -24 -126 -103 -236 -205 -282 -41 -18 -68 -23 -150 -23 -113 0
-173 20 -232 77 l-33 32 0 -193 c0 -113 -4 -200 -10 -212 -10 -17 -22 -19
-108 -19 -63 0 -102 4 -110 12 -17 17 -17 1189 0 1206 8 8 46 12 105 12 101 0
113 -7 113 -65 l0 -27 31 27 c40 33 97 62 146 75 57 14 181 5 243 -19z m2567
-7 c36 -18 70 -45 89 -70 l31 -41 44 45 c67 69 135 97 239 97 73 0 93 -4 142
-28 67 -33 111 -80 147 -157 l26 -55 0 -335 0 -335 -99 -3 c-64 -2 -103 1
-112 9 -11 9 -14 65 -14 298 0 277 -1 288 -22 331 -25 48 -89 90 -138 90 -49
0 -113 -42 -137 -90 -22 -43 -23 -54 -23 -330 0 -209 -3 -289 -12 -298 -8 -8
-47 -12 -110 -12 -86 0 -98 2 -108 19 -6 12 -10 126 -10 301 0 308 -3 325 -59
372 -72 61 -191 38 -235 -47 -20 -37 -21 -58 -24 -332 -2 -229 -6 -294 -17
-303 -8 -7 -50 -10 -111 -8 l-99 3 -3 439 c-2 345 0 441 10 448 21 13 182 10
196 -4 7 -7 12 -28 12 -47 l0 -35 33 31 c92 88 244 107 364 47z m-1479 4 c9
-9 12 -80 12 -257 0 -278 8 -348 44 -396 35 -45 101 -70 167 -62 70 9 113 38
143 99 l26 52 0 276 c0 201 3 279 12 288 16 16 200 16 216 0 17 -17 17 -859 0
-876 -16 -16 -190 -16 -206 0 -7 7 -12 30 -12 52 l0 40 -37 -36 c-64 -62 -122
-82 -238 -83 -114 0 -163 15 -232 71 -49 40 -98 133 -113 213 -15 80 -13 604
2 619 8 8 47 12 108 12 61 0 100 -4 108 -12z m-5921 -594 c60 -45 73 -78 73
-185 l0 -99 -260 0 -260 0 0 88 c1 132 34 190 123 213 17 4 91 7 164 6 116 -2
136 -5 160 -23z"/>
<path d="M16795 17934 c-930 -96 -1684 -658 -2031 -1513 -41 -102 -42 -105
-27 -145 8 -23 24 -79 35 -126 21 -82 22 -116 27 -850 l6 -765 58 -110 c203
-380 502 -704 862 -930 205 -129 535 -262 778 -314 264 -57 630 -67 863 -25
17 3 64 30 103 60 l72 54 134 0 c150 0 170 5 355 92 495 232 928 672 1155
1176 146 322 215 645 215 1002 0 487 -131 919 -405 1330 -328 494 -837 852
-1415 996 -204 50 -322 65 -545 69 -110 1 -218 1 -240 -1z m215 -414 l0 -120
30 0 c23 0 30 -4 30 -20 0 -18 -7 -20 -60 -20 l-60 0 0 140 0 140 30 0 30 0 0
-120z m-203 -22 c23 -73 41 -133 40 -134 -1 -1 -12 -5 -25 -9 -19 -5 -24 -2
-33 24 -16 46 -59 35 -59 -16 0 -18 -6 -23 -25 -23 l-26 0 6 118 c8 155 9 160
43 165 15 2 29 5 32 5 3 1 24 -58 47 -130z m491 122 c15 0 22 -6 22 -19 0 -15
-8 -21 -32 -23 -29 -3 -33 -7 -36 -35 -3 -30 -1 -33 22 -33 28 0 29 -1 20 -24
-3 -9 -16 -16 -29 -16 -19 0 -24 -6 -28 -37 -5 -48 -2 -53 34 -53 30 0 34 -6
21 -27 -5 -8 -26 -10 -66 -6 l-58 6 5 36 c3 20 11 83 18 140 l12 103 36 -6
c20 -3 46 -6 59 -6z m-754 -46 c8 -20 -1 -34 -20 -34 -8 0 -14 -1 -14 -2 0 -2
13 -54 29 -116 l29 -112 -25 -6 c-13 -4 -27 -4 -30 0 -4 3 -19 52 -33 109 -24
90 -30 102 -48 101 -13 0 -24 7 -28 18 -7 24 -11 21 56 40 73 21 77 21 84 2z
m1010 -8 c38 -16 51 -42 41 -85 -6 -27 -8 -29 -34 -20 -23 8 -27 14 -23 39 3
22 0 30 -11 30 -9 0 -19 -5 -22 -10 -9 -14 -45 -147 -45 -165 0 -26 37 -17 44
11 6 22 11 25 34 19 36 -9 36 -8 17 -49 -20 -43 -49 -53 -100 -36 -54 18 -61
46 -35 151 31 124 58 147 134 115z m264 -91 c40 -16 53 -37 32 -50 -5 -3 -19
-1 -32 6 -18 10 -24 8 -35 -7 -19 -26 -16 -52 7 -59 30 -9 9 -44 -23 -38 -18
4 -26 -2 -35 -22 -18 -39 -15 -52 13 -59 25 -6 34 -29 16 -41 -5 -3 -34 5 -64
17 l-54 22 49 120 c58 141 57 139 72 133 6 -3 30 -13 54 -22z m-1524 -7 c9
-12 16 -42 16 -66 0 -37 7 -52 41 -93 l41 -49 -27 -10 c-38 -14 -37 -15 -74
40 -32 46 -51 62 -51 41 0 -4 10 -32 22 -61 18 -44 19 -53 7 -61 -33 -21 -44
-8 -91 109 -27 64 -48 122 -48 128 0 16 68 42 112 43 27 1 41 -5 52 -21z
m1749 -104 c52 -32 67 -51 67 -82 0 -23 -42 -74 -68 -83 -7 -2 -20 -31 -28
-64 -9 -33 -17 -61 -19 -63 -2 -2 -14 4 -28 13 l-25 16 18 57 c10 31 15 61 13
66 -7 10 -38 -28 -54 -66 -13 -31 -26 -35 -53 -15 -17 13 -14 21 50 130 38 64
72 117 76 117 5 0 27 -12 51 -26z m-2044 -14 c19 -9 93 -128 105 -166 10 -32
-12 -71 -49 -89 -42 -19 -47 -19 -79 6 -29 23 -106 154 -106 182 0 10 13 32
29 48 30 30 67 37 100 19z m-260 -177 l-22 -23 23 -25 c21 -22 25 -23 40 -10
21 19 26 19 34 -1 4 -9 0 -24 -9 -34 -14 -15 -12 -21 22 -64 31 -40 34 -49 22
-61 -8 -7 -19 -15 -25 -17 -10 -3 -174 194 -174 210 0 4 19 22 42 40 32 25 44
29 55 20 11 -9 10 -15 -8 -35z m2729 -126 c20 -21 21 -25 7 -37 -13 -11 -19
-9 -38 9 l-23 21 -24 -25 c-22 -23 -22 -26 -6 -43 14 -17 15 -21 2 -31 -11 -9
-19 -9 -34 0 -17 11 -23 9 -45 -17 l-26 -29 22 -23 c18 -20 19 -24 6 -37 -13
-13 -20 -10 -58 29 l-44 45 93 100 92 101 27 -19 c14 -11 36 -30 49 -44z
m-2830 -99 c9 -9 -7 -30 -66 -92 -186 -195 -330 -439 -421 -711 -42 -127 -78
-287 -88 -392 -5 -53 -9 -63 -25 -63 -16 0 -18 6 -12 58 38 358 195 739 421
1022 72 90 162 190 172 190 4 0 12 -5 19 -12z m2982 -73 c0 -6 -20 -35 -45
-64 -25 -29 -45 -55 -45 -57 0 -2 31 11 69 30 67 34 69 35 86 16 9 -10 15 -23
14 -29 -8 -22 -201 -172 -215 -167 -25 10 -14 30 41 75 30 25 53 46 52 48 -2
1 -33 -13 -70 -33 -63 -33 -87 -37 -87 -12 0 6 24 38 53 71 56 65 52 66 -31 3
-44 -32 -55 -37 -63 -25 -5 8 -9 17 -9 20 0 4 48 43 107 88 101 77 107 80 125
65 10 -10 18 -22 18 -29z m205 -295 c24 -51 27 -63 17 -85 -14 -30 -74 -59
-102 -50 -11 3 -29 19 -40 35 l-21 29 -50 -27 c-49 -26 -50 -27 -64 -8 -8 11
-15 23 -15 26 0 6 229 139 241 140 3 0 18 -27 34 -60z m-2144 -22 c140 -69
241 -215 243 -347 1 -118 -39 -172 -199 -271 -82 -50 -133 -59 -199 -37 l-46
16 0 -52 c0 -60 30 -192 58 -257 11 -25 51 -113 90 -196 39 -82 74 -169 78
-192 4 -23 9 -42 13 -42 3 0 25 45 49 99 50 115 145 264 198 311 68 59 137 84
234 84 50 -1 110 -8 145 -18 109 -32 101 -33 109 15 10 62 63 154 114 200 57
50 165 104 239 119 31 7 102 10 158 8 89 -3 109 -7 166 -35 167 -82 271 -274
255 -468 -10 -127 -49 -216 -160 -362 -330 -438 -904 -758 -1506 -839 -125
-16 -458 -19 -515 -3 -59 16 -118 82 -143 160 -24 73 -65 270 -84 404 -18 125
-18 890 0 1035 18 141 58 324 86 385 42 91 90 134 275 239 109 62 144 74 217
75 49 1 73 -5 125 -31z m2269 -234 c40 -92 16 -139 -69 -139 -46 0 -54 -4
-137 -67 -8 -6 -15 1 -22 22 -11 30 -10 31 44 67 65 43 59 63 -10 33 -60 -25
-60 -25 -74 5 -10 21 -9 27 4 32 8 3 63 25 122 49 59 23 111 43 115 43 4 1 17
-20 27 -45z m98 -305 c16 -66 15 -69 -7 -69 -13 0 -21 9 -26 30 -6 26 -10 29
-33 24 -40 -10 -43 -13 -36 -40 5 -19 2 -24 -14 -24 -12 0 -23 9 -27 21 -6 17
-12 19 -38 13 -46 -9 -50 -13 -43 -44 4 -20 1 -30 -11 -34 -20 -8 -19 -11 -36
57 l-15 57 26 7 c124 31 210 51 228 52 17 1 23 -8 32 -50z m25 -217 c29 -31
32 -77 8 -101 -30 -30 -61 -28 -61 4 0 16 6 25 15 25 8 0 15 7 15 15 0 30 -36
14 -80 -36 -39 -44 -51 -51 -84 -52 -86 -2 -107 113 -27 141 27 9 31 8 37 -10
5 -15 0 -26 -17 -39 -19 -14 -21 -21 -12 -30 9 -9 18 -8 37 5 15 9 26 20 26
24 0 4 13 22 29 40 35 37 87 44 114 14z m-3923 -222 c25 -25 28 -101 5 -124
-20 -19 -90 -30 -165 -24 -76 5 -100 26 -100 82 0 72 23 85 148 86 79 0 95 -3
112 -20z m3815 -50 c50 -11 100 -22 113 -25 18 -4 22 -12 22 -40 0 -19 -3 -35
-7 -35 -5 0 -62 -9 -128 -20 -150 -25 -145 -25 -145 4 0 19 7 26 29 31 49 10
53 55 5 55 -20 0 -24 5 -24 30 0 26 3 30 23 25 12 -3 63 -14 112 -25z m-3795
-220 c42 -42 14 -138 -37 -128 -26 5 -29 44 -4 51 25 6 27 25 4 34 -11 4 -25
-4 -44 -28 -63 -76 -67 -79 -108 -79 -45 0 -71 26 -71 70 0 31 8 44 38 59 27
14 27 14 36 -15 4 -15 2 -24 -9 -28 -8 -3 -15 -13 -15 -21 0 -29 33 -12 68 35
54 71 103 89 142 50z m3720 -54 c0 -18 -6 -26 -22 -28 -27 -4 -34 -23 -12 -32
11 -4 36 6 68 29 60 41 105 46 137 14 17 -17 20 -29 16 -56 -8 -46 -23 -63
-58 -63 -24 0 -29 4 -29 25 0 18 5 25 20 25 11 0 20 6 20 14 0 28 -29 24 -77
-10 -57 -40 -111 -46 -143 -14 -23 23 -24 37 -9 77 13 34 26 43 62 43 22 0 27
-4 27 -24z m-3656 -202 c4 -15 6 -28 4 -29 -2 -2 -55 -17 -118 -34 -63 -18
-122 -34 -131 -37 -12 -3 -19 3 -23 22 -4 14 -5 28 -2 31 5 5 235 71 252 72 7
1 15 -11 18 -25z m3615 -224 l111 -72 -15 -29 c-9 -16 -20 -29 -26 -29 -6 0
-69 12 -139 27 l-128 26 11 24 c9 20 16 24 39 19 41 -8 55 22 22 49 -18 15
-22 26 -18 43 8 29 8 29 143 -58z m-3499 -90 c31 -31 36 -68 13 -98 -26 -34
-39 -38 -53 -12 -9 16 -8 24 5 36 22 22 19 36 -7 32 -18 -2 -27 -15 -41 -58
-21 -62 -40 -86 -79 -95 -22 -6 -33 -1 -58 23 -34 34 -37 57 -14 90 18 27 32
28 50 5 10 -15 10 -21 -3 -36 -19 -21 -9 -36 14 -21 20 12 26 23 47 85 24 66
85 90 126 49z m3360 -145 c90 -52 95 -54 105 -35 10 18 13 19 29 7 18 -13 18
-16 -14 -73 -18 -32 -35 -61 -36 -63 -8 -10 -33 23 -31 42 2 16 -17 31 -95 75
-92 52 -96 56 -86 78 6 13 16 24 22 24 6 0 54 -25 106 -55z m-3244 -78 c-3 -7
-11 -20 -18 -29 -20 -27 3 -45 38 -29 22 10 28 9 40 -6 7 -10 14 -21 14 -24 0
-3 -57 -31 -127 -62 l-128 -57 -17 22 c-10 13 -18 27 -18 33 0 5 44 53 97 107
92 93 97 96 111 77 7 -11 11 -25 8 -32z m3149 -118 l105 -81 -19 -27 c-34 -47
-73 -81 -95 -81 -31 0 -66 28 -81 64 -10 24 -25 36 -64 50 -61 22 -69 31 -46
56 17 18 18 18 73 -6 30 -13 59 -21 64 -16 4 4 -15 25 -43 46 -49 36 -50 38
-33 57 9 10 21 19 25 19 5 0 56 -37 114 -81z m-3040 -140 c-64 -66 -62 -67 29
-6 46 31 60 36 67 26 13 -20 13 -20 -36 -87 -25 -34 -43 -62 -40 -62 4 0 31
23 61 52 51 48 56 50 71 35 15 -15 11 -21 -53 -80 -38 -35 -86 -78 -106 -96
l-36 -32 -16 23 c-22 30 -21 34 17 87 54 74 53 75 -18 30 l-67 -42 -21 22 -22
21 100 100 c88 89 101 98 114 85 14 -13 9 -22 -44 -76z m2837 -97 l78 -117
-25 -24 -24 -25 -63 44 c-168 117 -171 120 -152 141 16 18 18 18 45 2 23 -14
31 -15 41 -5 10 10 9 18 -4 40 -16 27 -16 30 0 45 9 9 19 17 22 17 3 0 40 -53
82 -118z m-2548 -60 c2 -4 -7 -33 -21 -66 -23 -56 -24 -87 0 -55 52 68 66 82
81 76 35 -14 26 -37 -51 -141 -43 -58 -81 -105 -84 -106 -18 -1 -100 74 -105
97 -9 35 16 76 55 88 17 5 34 18 37 30 4 11 15 39 25 63 16 38 21 42 38 32 11
-5 22 -13 25 -18z m2351 -117 c94 -90 99 -96 81 -110 -17 -13 -24 -10 -83 42
l-65 57 38 -77 c37 -75 38 -77 19 -91 -19 -14 -23 -9 -84 112 l-63 126 22 18
c12 10 25 18 29 18 3 -1 51 -43 106 -95z m-217 -140 c34 -63 62 -118 62 -122
0 -4 -23 -21 -51 -37 -42 -23 -53 -26 -60 -15 -11 18 -11 29 -1 29 5 0 16 6
26 13 15 11 16 17 5 40 -10 23 -17 27 -40 22 -34 -8 -48 19 -19 35 20 11 20
11 -1 51 -20 40 -21 40 -45 24 -26 -16 -44 -13 -44 9 0 11 84 66 100 65 3 0
33 -51 68 -114z m-1867 82 c49 -33 48 -65 -4 -162 -45 -84 -71 -104 -118 -92
-36 9 -69 44 -69 74 0 32 74 168 103 188 29 21 48 19 88 -8z m199 -164 c0 -41
4 -72 8 -69 5 3 17 30 27 60 19 56 28 63 54 47 12 -8 6 -32 -33 -139 -41 -112
-51 -129 -67 -125 -15 4 -19 15 -20 52 -1 25 -4 57 -8 70 -6 22 -9 17 -26 -32
-19 -57 -28 -64 -54 -48 -12 7 -5 32 34 139 41 109 51 128 67 124 15 -4 18
-15 18 -79z m1420 55 c25 -27 25 -30 -1 -46 -17 -11 -23 -10 -39 10 -15 18
-21 20 -31 11 -18 -18 5 -41 68 -69 56 -25 73 -46 73 -93 0 -58 -94 -84 -127
-34 -13 20 -12 23 7 33 18 10 24 8 35 -7 11 -14 16 -15 26 -6 18 18 -4 40 -67
68 -57 25 -74 47 -74 94 0 57 88 84 130 39z m-400 -82 c0 -1 9 -63 20 -136 12
-73 19 -134 18 -136 -2 -1 -31 -6 -64 -9 -82 -10 -97 5 -113 109 -21 147 -18
151 132 175 4 0 7 -1 7 -3z m-567 -17 c29 -16 37 -28 37 -61 0 -23 -4 -28 -24
-28 -18 0 -25 6 -28 23 -2 12 -10 22 -18 22 -26 0 -22 -30 11 -71 56 -70 60
-120 13 -151 -49 -31 -114 4 -114 62 0 24 47 19 53 -5 6 -24 25 -26 34 -4 3 9
-7 31 -26 54 -17 21 -36 51 -41 65 -26 69 38 128 103 94z m201 -40 c5 -25 10
-30 28 -27 17 2 24 11 26 31 3 23 8 27 33 27 25 0 29 -3 24 -22 -7 -32 -45
-240 -45 -250 0 -4 -15 -8 -34 -8 -24 0 -36 5 -40 18 -6 21 -46 230 -46 242 0
7 14 14 41 19 4 0 9 -13 13 -30z m1061 -40 c5 -23 3 -34 -12 -44 -16 -12 -18
-11 -21 17 -6 59 21 82 33 27z"/>
<path d="M16741 17488 c-1 -37 3 -48 14 -48 12 0 14 7 9 28 -15 61 -23 68 -23
20z"/>
<path d="M16205 17439 c-4 -5 -1 -24 5 -40 15 -35 43 -35 48 -1 6 38 -36 70
-53 41z"/>
<path d="M18001 17299 c-12 -19 -17 -37 -12 -42 14 -14 42 -4 57 19 13 18 12
23 -5 38 -19 18 -21 17 -40 -15z"/>
<path d="M15930 17293 c1 -26 84 -158 101 -158 26 0 19 30 -23 100 -43 69 -78
96 -78 58z"/>
<path d="M18753 16552 c-37 -18 -40 -24 -18 -42 18 -15 65 1 65 22 -1 30 -15
36 -47 20z"/>
<path d="M16435 16435 c-120 -62 -215 -127 -242 -162 -39 -54 -78 -204 -105
-403 -18 -134 -18 -850 0 -985 20 -147 67 -366 91 -419 32 -74 54 -79 301 -73
211 5 299 17 482 63 474 119 924 408 1186 763 72 96 96 145 119 235 31 126 -7
246 -107 348 -72 72 -134 93 -254 85 -115 -6 -186 -37 -263 -112 -72 -70 -89
-116 -79 -207 6 -53 5 -60 -18 -83 l-26 -25 -57 29 c-168 84 -302 97 -391 38
-72 -48 -171 -211 -241 -397 -18 -47 -54 -157 -80 -245 l-47 -160 -34 3 c-60
6 -60 7 -60 212 0 103 -4 211 -10 240 -5 29 -40 114 -76 189 -88 182 -119 263
-138 354 -20 97 -20 229 0 317 17 76 51 119 133 172 l46 28 22 -51 23 -52 -22
-16 c-12 -8 -36 -27 -52 -42 -26 -23 -28 -29 -17 -42 7 -9 28 -21 47 -27 32
-11 39 -9 108 34 41 26 89 63 106 83 30 34 32 40 28 95 -4 47 -11 68 -44 115
-50 72 -136 133 -195 140 -39 4 -56 -1 -134 -42z"/>
<path d="M18878 16288 c-30 -10 -36 -29 -15 -46 13 -10 51 0 61 16 7 11 -3 42
-13 41 -3 0 -18 -5 -33 -11z"/>
<path d="M14933 15524 c-9 -25 16 -34 97 -34 81 0 106 9 97 34 -5 13 -23 16
-97 16 -74 0 -92 -3 -97 -16z"/>
<path d="M18920 15467 c0 -8 14 -11 46 -8 32 2 42 6 33 12 -22 13 -79 11 -79
-4z"/>
<path d="M18776 14803 c-13 -14 -4 -23 35 -33 54 -15 56 -10 10 17 -21 12 -41
19 -45 16z"/>
<path d="M15370 14424 c-17 -15 -29 -28 -27 -31 6 -6 77 29 77 38 0 20 -21 17
-50 -7z"/>
<path d="M18574 14318 c-5 -16 -1 -27 16 -40 22 -18 24 -18 42 -1 18 16 18 17
-9 39 -35 29 -40 29 -49 2z"/>
<path d="M18335 14149 c-7 -10 11 -28 49 -50 17 -10 17 -8 -3 20 -27 37 -38
45 -46 30z"/>
<path d="M15758 13949 c-20 -11 -24 -54 -6 -65 17 -11 60 47 46 63 -12 15 -17
16 -40 2z"/>
<path d="M16041 13828 c-44 -79 -51 -111 -24 -106 21 4 93 126 90 152 -4 40
-27 25 -66 -46z"/>
<path d="M17271 13681 c-11 -7 -12 -22 -2 -87 11 -77 32 -118 49 -99 9 11 -16
195 -27 195 -3 0 -12 -4 -20 -9z"/>
<path d="M17000 13578 c0 -18 5 -40 10 -48 8 -12 10 -10 10 10 0 14 3 35 6 48
5 16 2 22 -10 22 -11 0 -16 -9 -16 -32z"/>
<path d="M13882 16299 c-93 -18 -137 -79 -153 -212 -16 -128 -7 -1630 10
-1682 32 -99 110 -151 213 -142 93 8 149 53 180 146 17 49 24 1605 8 1701 -6
36 -21 83 -33 105 -38 68 -131 102 -225 84z"/>
<path d="M15873 12803 c-36 -7 -83 -63 -99 -119 -12 -44 -14 -158 -12 -785 l3
-734 27 -55 c32 -65 68 -90 130 -90 59 0 100 28 129 87 l24 48 0 760 0 760
-25 49 c-35 68 -94 95 -177 79z"/>
<path d="M5890 16783 c-45 -23 -80 -76 -80 -122 0 -94 200 -4421 209 -4522 47
-523 396 -961 896 -1128 151 -50 242 -61 511 -61 340 0 475 26 692 135 376
188 634 530 707 938 10 55 50 846 120 2370 103 2233 106 2289 88 2325 -10 19
-31 45 -46 56 -28 21 -30 21 -1545 24 -1429 2 -1519 1 -1552 -15z"/>
<path d="M6785 9994 c-296 -38 -503 -183 -634 -443 -70 -138 -74 -168 -79
-648 l-4 -433 1356 0 1356 0 0 428 c0 398 -1 435 -20 508 -72 279 -278 488
-559 567 -74 20 -95 21 -731 23 -360 1 -668 0 -685 -2z"/>
<path d="M12800 9699 c-62 -25 -110 -110 -110 -194 0 -60 29 -132 65 -164 48
-42 93 -49 149 -21 128 61 129 308 2 369 -46 23 -68 25 -106 10z"/>
<path d="M11629 9573 l-35 -108 64 -3 c36 -2 66 -1 69 2 3 2 -11 52 -30 110
l-34 106 -34 -107z"/>
<path d="M16170 8659 c-62 -25 -110 -110 -110 -194 0 -60 29 -132 65 -164 48
-42 93 -49 149 -21 128 61 129 308 2 369 -46 23 -68 25 -106 10z"/>
<path d="M11222 8564 l3 -99 54 0 c47 1 57 5 82 33 37 41 39 90 6 128 -20 23
-34 28 -86 32 l-62 4 3 -98z"/>
<path d="M14569 8533 l-35 -108 64 -3 c36 -2 66 -1 69 2 3 2 -11 52 -30 110
l-34 106 -34 -107z"/>
<path d="M15550 8465 l0 -198 69 5 c133 10 196 75 196 203 0 124 -52 175 -186
183 l-79 5 0 -198z"/>
<path d="M10504 5401 c-53 -32 -94 -108 -94 -172 l0 -29 185 0 185 0 0 35 c0
68 -44 141 -102 171 -40 21 -136 18 -174 -5z"/>
<path d="M13135 5386 c-49 -18 -98 -72 -113 -124 -19 -64 -15 -259 7 -307 49
-110 183 -148 282 -82 53 35 81 102 87 210 8 153 -23 248 -95 289 -43 26 -119
32 -168 14z"/>
</g>
</svg>
