<?xml version="1.0" standalone="no"?>
<!DOCTYPE svg PUBLIC "-//W3C//DTD SVG 20010904//EN"
 "http://www.w3.org/TR/2001/REC-SVG-20010904/DTD/svg10.dtd">
<svg version="1.0" xmlns="http://www.w3.org/2000/svg"
 width="1000.000000pt" height="1000.000000pt" viewBox="0 0 1000.000000 1000.000000"
 preserveAspectRatio="xMidYMid meet">

<g transform="translate(0.000000,1000.000000) scale(0.100000,-0.100000)"
fill="#000000" stroke="none">
<path d="M1055 6511 c-111 -29 -179 -117 -179 -231 0 -239 313 -329 438 -126
74 119 28 280 -98 340 -42 20 -119 28 -161 17z"/>
<path d="M2910 6175 c0 -190 -2 -345 -4 -345 -2 0 -32 13 -68 29 -111 51 -180
65 -323 65 -158 0 -232 -16 -365 -81 -84 -40 -107 -58 -201 -152 -92 -93 -111
-118 -151 -201 -70 -143 -80 -198 -87 -465 -6 -221 -7 -232 -31 -275 -57 -101
-166 -134 -262 -77 -26 15 -56 40 -68 56 -50 71 -50 76 -50 657 l0 544 -195 0
-196 0 3 -617 c3 -607 4 -619 25 -683 32 -94 75 -153 145 -200 96 -64 167 -82
349 -88 187 -5 285 11 397 64 136 66 234 194 267 351 10 45 15 131 15 254 0
158 3 197 20 251 36 116 113 207 219 257 50 23 68 26 171 26 98 0 122 -3 163
-22 65 -30 157 -124 192 -198 28 -56 30 -69 37 -231 12 -296 61 -435 203 -581
68 -69 96 -89 175 -127 224 -107 452 -78 706 91 l53 35 43 -35 c60 -49 160
-101 243 -127 99 -31 303 -39 409 -16 138 31 275 101 375 191 l41 38 49 -46
c143 -134 313 -197 532 -197 142 0 229 20 355 80 112 54 222 147 301 254 l43
58 0 -191 0 -191 200 0 200 0 0 414 c0 236 4 436 10 466 23 123 99 228 199
277 50 25 67 28 161 28 93 0 112 -3 161 -26 75 -35 134 -96 172 -177 l32 -67
3 -457 3 -458 199 0 200 0 0 420 c0 272 4 438 11 472 26 119 107 226 207 271
64 28 190 35 263 14 116 -34 201 -121 240 -246 18 -58 19 -95 19 -497 l0 -434
200 0 200 0 0 444 c0 477 -4 524 -53 658 -38 106 -85 176 -182 274 -141 142
-277 201 -490 211 -90 4 -126 2 -197 -16 -166 -39 -307 -130 -405 -260 -11
-14 -14 -13 -29 9 -32 48 -131 135 -195 173 -35 21 -100 49 -144 64 -71 24
-96 27 -220 27 -106 0 -156 -4 -205 -18 -204 -57 -378 -201 -468 -388 -20 -42
-39 -77 -43 -77 -3 -1 -15 20 -28 47 -79 162 -246 317 -418 387 -180 73 -426
73 -606 0 -229 -93 -415 -304 -478 -540 -24 -93 -30 -288 -10 -369 11 -47 10
-50 -20 -98 -38 -58 -97 -109 -165 -140 -42 -20 -65 -23 -169 -23 -117 0 -122
1 -184 33 -168 88 -265 277 -234 458 32 186 186 342 359 362 56 6 78 18 258
132 221 141 214 128 92 179 -191 79 -422 81 -614 4 -156 -63 -330 -219 -409
-369 -103 -195 -121 -441 -47 -644 13 -35 20 -67 15 -70 -150 -104 -237 -133
-334 -111 -109 24 -185 97 -224 216 -15 43 -18 110 -21 453 l-3 402 210 0 211
0 0 160 0 160 -207 2 -208 3 -3 228 -2 227 -170 0 -170 0 0 -345z m2995 -670
c80 -39 158 -118 198 -202 30 -64 32 -74 32 -183 0 -109 -2 -119 -32 -182 -42
-90 -110 -160 -192 -201 -61 -30 -72 -32 -171 -32 -99 0 -110 2 -172 33 -79
39 -153 115 -195 200 -26 53 -28 66 -28 177 0 114 2 123 31 186 52 109 132
184 237 221 80 29 213 21 292 -17z"/>
<path d="M1845 4030 c-49 -15 -110 -74 -136 -132 -32 -72 -34 -210 -3 -278 43
-93 118 -139 224 -140 49 0 77 6 110 23 l45 22 3 123 3 122 -86 0 -85 0 0 -30
c0 -30 1 -30 55 -30 l55 0 0 -75 c0 -81 -3 -86 -69 -99 -84 -16 -170 41 -196
128 -37 122 -1 250 82 299 45 26 123 25 170 -3 36 -21 36 -21 56 -2 19 20 19
20 -23 48 -35 23 -56 29 -109 31 -36 1 -80 -2 -96 -7z"/>
<path d="M8820 4023 c-86 -44 -106 -150 -41 -217 19 -19 67 -48 113 -67 95
-41 128 -69 128 -114 0 -56 -71 -101 -139 -89 -39 7 -87 29 -112 50 -13 12
-19 11 -38 -10 l-22 -23 47 -32 c55 -36 93 -45 174 -39 67 5 101 24 138 79 19
27 23 43 19 82 -6 66 -47 106 -149 149 -100 42 -128 66 -128 112 0 54 39 79
113 74 37 -3 67 -12 85 -25 l27 -20 18 23 c17 23 17 24 -24 51 -54 36 -155 44
-209 16z"/>
<path d="M980 3760 l0 -270 96 0 c121 0 167 14 220 65 96 92 100 303 8 405
-48 53 -104 70 -226 70 l-98 0 0 -270z m207 205 c78 -33 112 -92 113 -196 0
-152 -68 -228 -202 -229 l-58 0 0 220 0 220 55 0 c31 0 72 -7 92 -15z"/>
<path d="M1490 3760 l0 -270 35 0 35 0 0 270 0 270 -35 0 -35 0 0 -270z"/>
<path d="M2230 3760 l0 -270 35 0 35 0 0 270 0 270 -35 0 -35 0 0 -270z"/>
<path d="M2400 4005 c0 -24 2 -24 83 -27 l82 -3 3 -242 2 -243 30 0 30 0 2
243 3 242 83 3 c80 3 82 3 82 27 l0 25 -200 0 -200 0 0 -25z"/>
<path d="M2975 4018 c-28 -80 -175 -517 -175 -522 0 -3 15 -6 34 -6 33 0 33 0
56 80 l23 80 103 0 103 0 25 -77 c24 -78 24 -78 61 -81 33 -3 37 -1 31 15 -4
10 -46 132 -93 271 l-86 252 -39 0 c-22 0 -41 -5 -43 -12z m80 -160 c19 -62
37 -121 40 -131 6 -15 -1 -17 -75 -17 -80 0 -82 1 -77 23 18 68 72 245 75 242
2 -2 18 -54 37 -117z"/>
<path d="M3320 3760 l0 -270 155 0 155 0 0 25 0 25 -120 0 -120 0 0 245 0 245
-35 0 -35 0 0 -270z"/>
<path d="M3850 4005 c0 -25 1 -25 80 -25 l80 0 0 -245 0 -245 35 0 35 0 0 245
0 245 85 0 c84 0 85 0 85 25 l0 25 -200 0 -200 0 0 -25z"/>
<path d="M4350 3760 l0 -270 35 0 35 0 0 130 0 130 125 0 125 0 0 -130 0 -130
35 0 35 0 0 270 0 270 -35 0 -35 0 0 -115 0 -115 -125 0 -125 0 0 115 0 115
-35 0 -35 0 0 -270z"/>
<path d="M5005 4018 c-29 -80 -175 -512 -175 -519 0 -5 15 -9 33 -9 31 0 32 1
56 80 l24 80 103 0 103 0 24 -77 c23 -77 24 -78 60 -81 l36 -3 -91 270 -90
271 -40 0 c-22 0 -41 -5 -43 -12z m80 -161 c17 -56 35 -112 39 -124 7 -23 6
-23 -77 -23 l-85 0 28 88 c16 48 33 107 40 131 6 23 14 40 17 37 4 -3 21 -52
38 -109z"/>
<path d="M5250 4005 c0 -25 1 -25 85 -25 l85 0 0 -245 0 -245 35 0 35 0 0 245
0 245 80 0 c79 0 80 0 80 25 l0 25 -200 0 -200 0 0 -25z"/>
<path d="M5920 3760 l0 -270 30 0 30 0 2 225 3 224 71 -197 c64 -176 74 -197
95 -200 23 -2 28 10 98 203 40 113 74 205 75 205 0 0 0 -103 -2 -230 l-3 -230
30 0 31 0 0 270 0 270 -40 0 c-27 0 -42 -5 -48 -17 -5 -10 -38 -100 -72 -201
-35 -101 -66 -179 -70 -175 -4 4 -37 95 -75 201 l-68 192 -43 0 -44 0 0 -270z"/>
<path d="M6554 3759 l-91 -270 36 3 c35 3 36 4 59 81 l23 77 103 0 103 0 24
-80 24 -80 37 0 36 0 -91 270 -92 270 -40 0 -40 0 -91 -271z m175 78 l39 -127
-83 0 -83 0 13 43 c52 172 67 218 71 215 2 -2 21 -61 43 -131z"/>
<path d="M6890 4005 c0 -25 1 -25 85 -25 l85 0 0 -245 0 -245 35 0 35 0 0 245
0 245 80 0 c79 0 80 0 80 25 l0 25 -200 0 -200 0 0 -25z"/>
<path d="M7340 4005 c0 -24 2 -24 83 -27 l82 -3 3 -242 2 -243 35 0 35 0 0
245 0 245 80 0 c79 0 80 0 80 25 l0 25 -200 0 -200 0 0 -25z"/>
<path d="M7840 3760 l0 -270 165 0 165 0 0 25 0 24 -127 3 -128 3 0 100 0 100
103 3 c101 3 102 3 102 27 0 25 0 25 -105 25 l-105 0 0 90 0 90 125 0 125 0 0
25 0 25 -160 0 -160 0 0 -270z"/>
<path d="M8290 3760 l0 -270 30 0 30 0 0 115 0 115 53 0 52 0 65 -115 65 -115
39 0 c37 0 38 1 24 23 -61 95 -121 211 -111 214 33 11 80 52 96 83 23 44 18
121 -9 157 -39 52 -77 63 -211 63 l-123 0 0 -270z m235 206 c39 -17 55 -42 55
-89 0 -71 -65 -111 -170 -105 l-55 3 -3 103 -3 102 71 0 c39 0 86 -6 105 -14z"/>
</g>
</svg>
